<mxfile host="65bd71144e" pages="2">
    <diagram id="vtp9Bg_XsvQ4TJa4SPZH" name="Page-1">
        <mxGraphModel dx="1154" dy="509" grid="1" gridSize="10" guides="1" tooltips="1" connect="1" arrows="1" fold="1" page="1" pageScale="1" pageWidth="827" pageHeight="1169" math="0" shadow="0">
            <root>
                <mxCell id="0"/>
                <mxCell id="1" parent="0"/>
                <mxCell id="pom_ysKEY-f78XnHbZMB-1" value="" style="strokeWidth=1;shadow=0;dashed=0;align=center;html=1;shape=mxgraph.mockup.containers.browserWindow;rSize=0;strokeColor=#666666;strokeColor2=#008cff;strokeColor3=#c4c4c4;mainText=,;recursiveResize=0;" parent="1" vertex="1">
                    <mxGeometry x="120" y="90" width="550" height="600" as="geometry"/>
                </mxCell>
                <mxCell id="pom_ysKEY-f78XnHbZMB-2" value="Page 1" style="strokeWidth=1;shadow=0;dashed=0;align=center;html=1;shape=mxgraph.mockup.containers.anchor;fontSize=17;fontColor=#666666;align=left;" parent="pom_ysKEY-f78XnHbZMB-1" vertex="1">
                    <mxGeometry x="60" y="12" width="110" height="26" as="geometry"/>
                </mxCell>
                <mxCell id="pom_ysKEY-f78XnHbZMB-3" value="https://www.draw.io" style="strokeWidth=1;shadow=0;dashed=0;align=center;html=1;shape=mxgraph.mockup.containers.anchor;rSize=0;fontSize=17;fontColor=#666666;align=left;" parent="pom_ysKEY-f78XnHbZMB-1" vertex="1">
                    <mxGeometry x="130" y="60" width="250" height="26" as="geometry"/>
                </mxCell>
                <mxCell id="pom_ysKEY-f78XnHbZMB-4" value="" style="rounded=0;whiteSpace=wrap;html=1;" parent="pom_ysKEY-f78XnHbZMB-1" vertex="1">
                    <mxGeometry y="110" width="550" height="70" as="geometry"/>
                </mxCell>
                <mxCell id="pom_ysKEY-f78XnHbZMB-6" value="" style="rounded=0;whiteSpace=wrap;html=1;" parent="pom_ysKEY-f78XnHbZMB-1" vertex="1">
                    <mxGeometry y="540" width="550" height="60" as="geometry"/>
                </mxCell>
                <mxCell id="2" value="&lt;b&gt;&lt;font style=&quot;font-size: 18px&quot;&gt;Jeux des capitales&lt;/font&gt;&lt;/b&gt;" style="text;html=1;strokeColor=none;fillColor=none;align=center;verticalAlign=middle;whiteSpace=wrap;rounded=0;" parent="pom_ysKEY-f78XnHbZMB-1" vertex="1">
                    <mxGeometry x="176.25" y="135" width="197.5" height="20" as="geometry"/>
                </mxCell>
                <mxCell id="4" value="Fais par les Robins" style="text;html=1;strokeColor=none;fillColor=none;align=center;verticalAlign=middle;whiteSpace=wrap;rounded=0;" parent="pom_ysKEY-f78XnHbZMB-1" vertex="1">
                    <mxGeometry x="140" y="560" width="280" height="20" as="geometry"/>
                </mxCell>
                <mxCell id="pom_ysKEY-f78XnHbZMB-5" value="" style="rounded=1;whiteSpace=wrap;html=1;" parent="pom_ysKEY-f78XnHbZMB-1" vertex="1">
                    <mxGeometry x="140" y="270" width="270" height="160" as="geometry"/>
                </mxCell>
                <mxCell id="pom_ysKEY-f78XnHbZMB-7" value="explicaytions de comment ca marche" style="text;html=1;strokeColor=none;fillColor=none;align=center;verticalAlign=middle;whiteSpace=wrap;rounded=0;" parent="pom_ysKEY-f78XnHbZMB-1" vertex="1">
                    <mxGeometry x="250" y="295" width="40" height="20" as="geometry"/>
                </mxCell>
                <mxCell id="pom_ysKEY-f78XnHbZMB-8" value="jouer" style="rounded=1;whiteSpace=wrap;html=1;" parent="pom_ysKEY-f78XnHbZMB-1" vertex="1">
                    <mxGeometry x="237" y="350" width="76" height="40" as="geometry"/>
                </mxCell>
            </root>
        </mxGraphModel>
    </diagram>
    <diagram id="JTxjSqbGDqQWFvfABh7o" name="Page-2">
        <mxGraphModel dx="1154" dy="509" grid="1" gridSize="10" guides="1" tooltips="1" connect="1" arrows="1" fold="1" page="1" pageScale="1" pageWidth="827" pageHeight="1169" math="0" shadow="0">
            <root>
                <mxCell id="Uu5af3MkGBq6IgRPIAnd-0"/>
                <mxCell id="Uu5af3MkGBq6IgRPIAnd-1" parent="Uu5af3MkGBq6IgRPIAnd-0"/>
                <mxCell id="OV5H-ac396Tkxro4qSlF-0" value="" style="strokeWidth=1;shadow=0;dashed=0;align=center;html=1;shape=mxgraph.mockup.containers.browserWindow;rSize=0;strokeColor=#666666;strokeColor2=#008cff;strokeColor3=#c4c4c4;mainText=,;recursiveResize=0;" parent="Uu5af3MkGBq6IgRPIAnd-1" vertex="1">
                    <mxGeometry x="139" y="40" width="550" height="510" as="geometry"/>
                </mxCell>
                <mxCell id="OV5H-ac396Tkxro4qSlF-1" value="Page 1" style="strokeWidth=1;shadow=0;dashed=0;align=center;html=1;shape=mxgraph.mockup.containers.anchor;fontSize=17;fontColor=#666666;align=left;" parent="OV5H-ac396Tkxro4qSlF-0" vertex="1">
                    <mxGeometry x="60" y="12" width="110" height="26" as="geometry"/>
                </mxCell>
                <mxCell id="OV5H-ac396Tkxro4qSlF-2" value="https://www.draw.io" style="strokeWidth=1;shadow=0;dashed=0;align=center;html=1;shape=mxgraph.mockup.containers.anchor;rSize=0;fontSize=17;fontColor=#666666;align=left;" parent="OV5H-ac396Tkxro4qSlF-0" vertex="1">
                    <mxGeometry x="130" y="60" width="250" height="26" as="geometry"/>
                </mxCell>
                <mxCell id="OV5H-ac396Tkxro4qSlF-3" value="" style="rounded=0;whiteSpace=wrap;html=1;" parent="OV5H-ac396Tkxro4qSlF-0" vertex="1">
                    <mxGeometry y="110" width="550" height="70" as="geometry"/>
                </mxCell>
                <mxCell id="OV5H-ac396Tkxro4qSlF-4" value="" style="rounded=1;whiteSpace=wrap;html=1;" parent="OV5H-ac396Tkxro4qSlF-0" vertex="1">
                    <mxGeometry x="140" y="220" width="270" height="160" as="geometry"/>
                </mxCell>
                <mxCell id="OV5H-ac396Tkxro4qSlF-5" value="" style="rounded=0;whiteSpace=wrap;html=1;" parent="OV5H-ac396Tkxro4qSlF-0" vertex="1">
                    <mxGeometry y="450" width="550" height="60" as="geometry"/>
                </mxCell>
                <mxCell id="OV5H-ac396Tkxro4qSlF-6" value="nom du pays" style="text;html=1;strokeColor=none;fillColor=none;align=center;verticalAlign=middle;whiteSpace=wrap;rounded=0;" parent="OV5H-ac396Tkxro4qSlF-0" vertex="1">
                    <mxGeometry x="231" y="245" width="80" height="20" as="geometry"/>
                </mxCell>
                <mxCell id="OV5H-ac396Tkxro4qSlF-7" value="input" style="rounded=1;whiteSpace=wrap;html=1;" parent="OV5H-ac396Tkxro4qSlF-0" vertex="1">
                    <mxGeometry x="200" y="280" width="150" height="40" as="geometry"/>
                </mxCell>
                <mxCell id="OV5H-ac396Tkxro4qSlF-9" value="" style="rounded=0;whiteSpace=wrap;html=1;" parent="OV5H-ac396Tkxro4qSlF-0" vertex="1">
                    <mxGeometry x="215" y="330" width="120" height="10" as="geometry"/>
                </mxCell>
                <mxCell id="OV5H-ac396Tkxro4qSlF-11" value="acceuil" style="text;html=1;strokeColor=none;fillColor=none;align=center;verticalAlign=middle;whiteSpace=wrap;rounded=0;" parent="OV5H-ac396Tkxro4qSlF-0" vertex="1">
                    <mxGeometry x="251" y="150" width="40" height="20" as="geometry"/>
                </mxCell>
                <mxCell id="OV5H-ac396Tkxro4qSlF-12" value="" style="rounded=1;whiteSpace=wrap;html=1;" parent="OV5H-ac396Tkxro4qSlF-0" vertex="1">
                    <mxGeometry x="215" y="350" width="120" height="20" as="geometry"/>
                </mxCell>
            </root>
        </mxGraphModel>
    </diagram>
</mxfile>